<?xml version="1.0" standalone="no"?>
<!DOCTYPE svg PUBLIC "-//W3C//DTD SVG 20010904//EN"
 "http://www.w3.org/TR/2001/REC-SVG-20010904/DTD/svg10.dtd">
<svg version="1.0" xmlns="http://www.w3.org/2000/svg"
 width="300.000000pt" height="300.000000pt" viewBox="0 0 300.000000 300.000000"
 preserveAspectRatio="xMidYMid meet">
<metadata>
Created by potrace 1.10, written by Peter Selinger 2001-2011
</metadata>
<g transform="translate(0.000000,300.000000) scale(0.100000,-0.100000)"
fill="#000000" stroke="none">
<path d="M1294 2985 c-330 -50 -594 -179 -827 -405 -267 -257 -412 -550 -458
-924 -31 -254 20 -553 137 -795 75 -158 151 -267 274 -394 248 -258 529 -402
883 -452 356 -51 725 36 1037 244 107 71 283 240 366 351 69 93 157 255 199
364 124 332 124 720 0 1052 -42 109 -130 271 -199 364 -83 111 -259 280 -366
351 -173 115 -379 200 -570 234 -129 23 -361 28 -476 10z m436 -241 c431 -76
812 -401 964 -822 92 -256 92 -588 0 -844 -127 -352 -420 -645 -772 -772 -256
-92 -588 -92 -844 0 -352 127 -645 420 -772 772 -92 256 -92 588 0 844 124
346 410 636 753 765 203 76 443 97 671 57z"/>
<path d="M1357 2360 c-184 -33 -343 -116 -472 -245 -107 -107 -176 -223 -222
-372 -24 -79 -27 -103 -27 -243 0 -140 3 -164 27 -243 90 -292 302 -504 594
-594 79 -24 103 -27 243 -27 140 0 164 3 243 27 129 40 233 97 337 186 l35 30
-82 82 -81 82 -64 -48 c-110 -84 -258 -135 -388 -135 -130 0 -278 51 -387 134
-152 115 -253 317 -253 506 0 130 51 278 134 387 115 152 317 253 506 253 130
0 278 -51 388 -135 l64 -48 81 82 82 82 -35 30 c-167 143 -334 208 -550 214
-69 2 -147 0 -173 -5z"/>
</g>
</svg>
